<?xml version="1.0" encoding="UTF-8" standalone="no"?>
<svg
   height="24"
   width="24"
   version="1.1"
   id="svg1"
   sodipodi:docname="user-menu.svg"
   inkscape:version="1.4.2 (ebf0e940d0, 2025-05-08)"
   xmlns:inkscape="http://www.inkscape.org/namespaces/inkscape"
   xmlns:sodipodi="http://sodipodi.sourceforge.net/DTD/sodipodi-0.dtd"
   xmlns="http://www.w3.org/2000/svg"
   xmlns:svg="http://www.w3.org/2000/svg">
  <sodipodi:namedview
     id="namedview1"
     pagecolor="#ffffff"
     bordercolor="#666666"
     borderopacity="1.0"
     inkscape:showpageshadow="2"
     inkscape:pageopacity="0.0"
     inkscape:pagecheckerboard="0"
     inkscape:deskcolor="#d1d1d1"
     inkscape:zoom="11.572917"
     inkscape:cx="18.966696"
     inkscape:cy="17.80018"
     inkscape:window-width="1366"
     inkscape:window-height="691"
     inkscape:window-x="0"
     inkscape:window-y="0"
     inkscape:window-maximized="1"
     inkscape:current-layer="svg1" />
  <defs
     id="defs1" />
  <path
     id="rect1-7"
     style="fill:#deddda;stroke-width:1.41826;stroke-linecap:round;stroke-linejoin:round;stroke-opacity:0.5;-inkscape-stroke:none"
     d="m 5.2641764,1.9756978 c -2.9023886,0 -5.23897383,2.0977099 -5.23897383,4.7033797 0,2.6056697 2.33658523,4.7033765 5.23897383,4.7033765 H 18.735824 c 2.902388,0 5.238973,-2.0977068 5.238973,-4.7033765 0,-2.6056698 -2.336585,-4.7033797 -5.238973,-4.7033797 z m 0,1.3438228 H 18.735824 c 2.073134,0 3.742124,1.4983643 3.742124,3.3595569 0,1.8611927 -1.66899,3.3595545 -3.742124,3.3595545 H 5.2641764 c -2.0731347,0 -3.7421242,-1.4983618 -3.7421242,-3.3595545 0,-1.8611926 1.6689895,-3.3595569 3.7421242,-3.3595569 z" />
  <path
     id="rect1-7-8"
     style="fill:#deddda;stroke-width:1.41826;stroke-linecap:round;stroke-linejoin:round;stroke-opacity:0.5;-inkscape-stroke:none"
     d="m 4.5157516,13.961368 c -2.4877617,0 -4.49054903,1.798038 -4.49054903,4.031469 0,2.23343 2.00278733,4.031468 4.49054903,4.031468 H 19.484248 c 2.487762,0 4.490549,-1.798038 4.490549,-4.031468 0,-2.233431 -2.002787,-4.031469 -4.490549,-4.031469 z m 14.9684964,1.343823 a 2.9936994,2.6876455 0 0 1 2.9937,2.687646 2.9936994,2.6876455 0 0 1 -2.9937,2.687645 2.9936994,2.6876455 0 0 1 -2.993699,-2.687645 2.9936994,2.6876455 0 0 1 2.993699,-2.687646 z" />
  <ellipse
     style="opacity:1;fill:#deddda;stroke-width:1.41825;stroke-linecap:round;stroke-linejoin:round;stroke-opacity:0.5;-inkscape-stroke:none"
     id="path2"
     cx="5.2641764"
     cy="6.6790771"
     rx="2.2452745"
     ry="2.0157342" />
</svg>
